<svg xmlns="http://www.w3.org/2000/svg" width="25" height="21" fill="none"><mask id="b" width="25" height="19" x="0" y="2" maskUnits="userSpaceOnUse" style="mask-type:alpha"><path fill="#E5A323" d="M24.775 11.07c0 6.768-5.496 9.019-12.275 9.019-6.78 0-12.275-2.251-12.275-9.02C.225 4.301 5.604-.635 12.5 3.771c6.69-4.544 12.275.53 12.275 7.298Z"/><path fill="url(#a)" d="M24.775 11.07c0 6.768-5.496 9.019-12.275 9.019-6.78 0-12.275-2.251-12.275-9.02C.225 4.301 5.604-.635 12.5 3.771c6.69-4.544 12.275.53 12.275 7.298Z"/></mask><g filter="url(#c)" mask="url(#b)"><path fill="#E5A323" d="M24.775 11.07c0 6.768-5.496 9.019-12.275 9.019-6.78 0-12.275-2.251-12.275-9.02C.225 4.301 5.604-.635 12.5 3.771c6.69-4.544 12.275.53 12.275 7.298Z"/><path fill="url(#d)" d="M24.775 11.07c0 6.768-5.496 9.019-12.275 9.019-6.78 0-12.275-2.251-12.275-9.02C.225 4.301 5.604-.635 12.5 3.771c6.69-4.544 12.275.53 12.275 7.298Z"/></g><mask id="f" width="23" height="17" x="1" y="2" maskUnits="userSpaceOnUse" style="mask-type:alpha"><path fill="#E5A323" d="M23.451 10.647c0 6.182-4.903 8.239-10.951 8.239-6.048 0-10.951-2.056-10.951-8.239C1.549 4.465 6.348.54 12.5 4.083c5.968-3.669 10.951.382 10.951 6.564Z"/><path fill="url(#e)" d="M23.451 10.647c0 6.182-4.903 8.239-10.951 8.239-6.048 0-10.951-2.056-10.951-8.239C1.549 4.465 6.348.54 12.5 4.083c5.968-3.669 10.951.382 10.951 6.564Z"/></mask><g mask="url(#f)"><g filter="url(#g)"><ellipse cx="12.5" cy="3.241" fill="#FFBD4F" rx="5.415" ry="2.648"/></g><g filter="url(#h)"><g filter="url(#i)"><path fill="#4E0B1B" fill-rule="evenodd" d="M14.202 3.446c.26.03.494.056.461.175-.027.097-.177.108-.386.122-.2.014-.454.032-.705.134-.19.1-.083.355.013.587.075.179.144.345.07.419-.11.111-.241.009-.457-.161-.282-.222-.709-.557-1.427-.684-.572-.1.63-.133 1.36-.153h.028c.04-.186.29-.535.426-.686 0 .178.324.214.617.247Z" clip-rule="evenodd"/></g></g></g><g filter="url(#j)"><path fill="#4E0B1B" fill-rule="evenodd" d="M12.921.805c-.6-.709-2.19-.819-2.9-.804h-.004c-.139-.005-.259.193-.268.444-.009.235.083.432.21.459v.001h.009a.142.142 0 0 0 .037 0c.296.007 1.072.07 1.31.402.345.484.19 1.2.054 1.78-.114.25-.368.465-.582.646-.235.199-.42.356-.316.47.075.083.255.014.48-.072.247-.095.55-.211.829-.168l.046.01.016.003.029.006c.659.149 1.058.488 1.326.716.215.183.345.293.456.173.073-.08.004-.258-.07-.45-.096-.25-.201-.523-.013-.632.25-.11.502-.128.702-.143.207-.016.357-.027.384-.132.033-.128-.201-.156-.459-.188-.278-.033-.583-.07-.612-.239-.028-.72-.225-1.763-.664-2.282Z" clip-rule="evenodd"/></g><g filter="url(#k)" opacity=".75"><path fill="url(#l)" fill-rule="evenodd" d="M8.6 4.503c.081-.068.08-.286-.006-.282-.6.035-1.2.437-1.711 1.229-.51.792-.855 1.856-1.02 3.01-.024.163.081.22.135.079.315-.84.708-1.642 1.169-2.358.46-.715.947-1.276 1.432-1.678Z" clip-rule="evenodd"/><path fill="url(#m)" fill-rule="evenodd" d="M16.02 4.503c-.081-.068-.079-.286.006-.282.6.035 1.2.437 1.711 1.229.511.792.855 1.856 1.02 3.01.024.163-.081.22-.135.079a12.451 12.451 0 0 0-1.169-2.358c-.46-.715-.947-1.276-1.432-1.678Z" clip-rule="evenodd"/><ellipse fill="url(#n)" rx=".241" ry="3.731" transform="matrix(-1 0 0 1 12.26 9.017)"/></g><g filter="url(#o)" opacity=".75"><path fill="url(#p)" fill-rule="evenodd" d="M5.77 14.92c-.026-.142-.167-.1-.172.055-.024.789.09 1.597.358 2.332.268.734.653 1.295 1.097 1.656.087.071.18-.101.115-.208a10.034 10.034 0 0 1-.844-1.784 12.503 12.503 0 0 1-.554-2.05Z" clip-rule="evenodd"/><path fill="url(#q)" fill-rule="evenodd" d="M18.87 14.92c.025-.143.166-.1.171.055a6.3 6.3 0 0 1-.358 2.332c-.268.735-.653 1.295-1.097 1.656-.087.071-.18-.101-.115-.208.31-.51.598-1.109.845-1.784.246-.676.43-1.37.553-2.05Z" clip-rule="evenodd"/><ellipse cx="12.259" cy="18.645" fill="url(#r)" rx=".241" ry=".963"/></g><ellipse cx="6.002" cy="11.364" fill="#4E0B1B" rx="2.527" ry="2.948" transform="rotate(5 6.002 11.364)"/><g filter="url(#s)"><path fill="url(#t)" fill-rule="evenodd" d="M8.531 11.198c-.276 1.306-1.422 2.232-2.7 2.12-1.28-.112-2.246-1.223-2.292-2.557a3.465 3.465 0 0 0-.055.383c-.142 1.622.87 3.036 2.26 3.157 1.391.122 2.633-1.094 2.775-2.717.012-.13.016-.259.012-.386Z" clip-rule="evenodd"/></g><ellipse cx="18.517" cy="11.364" fill="#4E0B1B" rx="2.527" ry="2.948" transform="rotate(-5 18.517 11.364)"/><g filter="url(#u)"><path fill="url(#v)" fill-rule="evenodd" d="M20.98 10.761c-.046 1.334-1.013 2.445-2.292 2.557-1.279.112-2.424-.814-2.7-2.12-.004.127 0 .256.011.386.142 1.623 1.385 2.839 2.775 2.717 1.39-.121 2.402-1.535 2.26-3.157a3.443 3.443 0 0 0-.054-.383Z" clip-rule="evenodd"/></g><mask id="w" width="3" height="3" x="11" y="12" maskUnits="userSpaceOnUse" style="mask-type:alpha"><path fill="#4E0B1B" d="M12.072 12.97a.245.245 0 0 1 .375 0l.995 1.18a.245.245 0 0 1-.188.403h-1.99a.245.245 0 0 1-.187-.404l.995-1.179Z"/></mask><g mask="url(#w)"><path fill="#4E0B1B" d="m12.26 12.748 1.522 1.805h-3.046l1.523-1.805Z"/><g filter="url(#x)"><path fill="url(#y)" fill-rule="evenodd" d="M13.405 13.779h-2.292l-.377.774h3.046l-.377-.774Z" clip-rule="evenodd"/></g></g><path fill="#4E0B1B" fill-rule="evenodd" d="M14.005 15.658c-.562.09-1.17.138-1.806.138-.643 0-1.258-.05-1.825-.141l-.031.207a.123.123 0 0 1-.14.103l-.59-.088a.123.123 0 0 1-.103-.14l.038-.253c-.711-.182-1.31-.435-1.741-.737.095 1.315 2.025 2.364 4.392 2.364 2.367 0 4.298-1.05 4.393-2.364-.435.304-1.04.56-1.76.742l.043.286a.123.123 0 0 1-.104.14l-.59.088a.123.123 0 0 1-.14-.104l-.036-.241Z" clip-rule="evenodd"/><path fill="url(#z)" fill-rule="evenodd" d="M8.117 15.562c.91.537 2.4.886 4.082.886 1.683 0 3.173-.35 4.083-.886-.649.908-2.232 1.549-4.083 1.549-1.85 0-3.434-.641-4.082-1.55Z" clip-rule="evenodd"/><defs><linearGradient id="a" x1="12.5" x2="12.5" y1="2.037" y2="20.089" gradientUnits="userSpaceOnUse"><stop stop-color="#C28A1E" stop-opacity="0"/><stop offset="1" stop-color="#C28A1E"/></linearGradient><linearGradient id="d" x1="12.5" x2="12.5" y1="2.037" y2="20.089" gradientUnits="userSpaceOnUse"><stop stop-color="#FA5A23" stop-opacity="0"/><stop offset="1" stop-color="#A03C19"/></linearGradient><linearGradient id="e" x1="12.5" x2="12.5" y1="2.397" y2="18.886" gradientUnits="userSpaceOnUse"><stop stop-color="#C28A1E" stop-opacity="0"/><stop offset="1" stop-color="#A03C19"/><stop offset="1" stop-color="#C28A1E"/></linearGradient><linearGradient id="l" x1="8.48" x2="4.614" y1="3.834" y2="5.335" gradientUnits="userSpaceOnUse"><stop offset=".385" stop-color="#FFB82E"/><stop offset="1" stop-color="#FFB82E" stop-opacity="0"/></linearGradient><linearGradient id="m" x1="16.14" x2="20.006" y1="3.834" y2="5.335" gradientUnits="userSpaceOnUse"><stop offset=".385" stop-color="#FFB82E"/><stop offset="1" stop-color="#FFB82E" stop-opacity="0"/></linearGradient><linearGradient id="n" x1=".241" x2=".241" y1="0" y2="7.461" gradientUnits="userSpaceOnUse"><stop offset=".385" stop-color="#FFB82E"/><stop offset="1" stop-color="#FFB82E" stop-opacity="0"/></linearGradient><linearGradient id="p" x1="5.465" x2="8.191" y1="15.019" y2="18.001" gradientUnits="userSpaceOnUse"><stop stop-color="#D59925"/><stop offset="1" stop-color="#D59925" stop-opacity="0"/></linearGradient><linearGradient id="q" x1="19.174" x2="16.449" y1="15.018" y2="18.002" gradientUnits="userSpaceOnUse"><stop stop-color="#D59925"/><stop offset="1" stop-color="#D59925" stop-opacity="0"/></linearGradient><linearGradient id="r" x1="12.259" x2="12.259" y1="17.682" y2="19.608" gradientUnits="userSpaceOnUse"><stop stop-color="#D59925"/><stop offset="1" stop-color="#D59925" stop-opacity="0"/></linearGradient><linearGradient id="t" x1="5.911" x2="5.745" y1="12.404" y2="14.301" gradientUnits="userSpaceOnUse"><stop stop-color="#4E0B1B"/><stop offset="1" stop-color="#995526"/></linearGradient><linearGradient id="v" x1="18.608" x2="18.774" y1="12.404" y2="14.301" gradientUnits="userSpaceOnUse"><stop stop-color="#4E0B1B"/><stop offset="1" stop-color="#995526"/></linearGradient><linearGradient id="y" x1="12.259" x2="12.259" y1="13.27" y2="14.553" gradientUnits="userSpaceOnUse"><stop stop-color="#4E0B1B"/><stop offset="1" stop-color="#995526"/></linearGradient><linearGradient id="z" x1="12.255" x2="12.199" y1="15.589" y2="17.111" gradientUnits="userSpaceOnUse"><stop stop-color="#4E0B1B"/><stop offset="1" stop-color="#995526"/></linearGradient><filter id="c" width="24.55" height="18.051" x=".225" y="2.037" color-interpolation-filters="sRGB" filterUnits="userSpaceOnUse"><feFlood flood-opacity="0" result="BackgroundImageFix"/><feBlend in="SourceGraphic" in2="BackgroundImageFix" result="shape"/><feColorMatrix in="SourceAlpha" result="hardAlpha" values="0 0 0 0 0 0 0 0 0 0 0 0 0 0 0 0 0 0 127 0"/><feOffset/><feGaussianBlur stdDeviation="1.228"/><feComposite in2="hardAlpha" k2="-1" k3="1" operator="arithmetic"/><feColorMatrix values="0 0 0 0 0.629167 0 0 0 0 0.235084 0 0 0 0 0.0996181 0 0 0 1 0"/><feBlend in2="shape" result="effect1_innerShadow_16_2"/></filter><filter id="g" width="16.723" height="11.187" x="4.139" y="-2.353" color-interpolation-filters="sRGB" filterUnits="userSpaceOnUse"><feFlood flood-opacity="0" result="BackgroundImageFix"/><feBlend in="SourceGraphic" in2="BackgroundImageFix" result="shape"/><feGaussianBlur result="effect1_foregroundBlur_16_2" stdDeviation="1.473"/></filter><filter id="h" width="3.29" height="1.976" x="11.499" y="3.076" color-interpolation-filters="sRGB" filterUnits="userSpaceOnUse"><feFlood flood-opacity="0" result="BackgroundImageFix"/><feBlend in="SourceGraphic" in2="BackgroundImageFix" result="shape"/><feGaussianBlur result="effect1_foregroundBlur_16_2" stdDeviation=".061"/></filter><filter id="i" width="3.29" height="2.344" x="11.376" y="2.831" color-interpolation-filters="sRGB" filterUnits="userSpaceOnUse"><feFlood flood-opacity="0" result="BackgroundImageFix"/><feBlend in="SourceGraphic" in2="BackgroundImageFix" result="shape"/><feColorMatrix in="SourceAlpha" result="hardAlpha" values="0 0 0 0 0 0 0 0 0 0 0 0 0 0 0 0 0 0 127 0"/><feOffset dx="-.245" dy="-.491"/><feGaussianBlur stdDeviation=".184"/><feComposite in2="hardAlpha" k2="-1" k3="1" operator="arithmetic"/><feColorMatrix values="0 0 0 0 0.120833 0 0 0 0 0.0176215 0 0 0 0 0.0422691 0 0 0 0.2 0"/><feBlend in2="shape" result="effect1_innerShadow_16_2"/><feColorMatrix in="SourceAlpha" result="hardAlpha" values="0 0 0 0 0 0 0 0 0 0 0 0 0 0 0 0 0 0 127 0"/><feOffset dy=".245"/><feGaussianBlur stdDeviation=".184"/><feComposite in2="hardAlpha" k2="-1" k3="1" operator="arithmetic"/><feColorMatrix values="0 0 0 0 1 0 0 0 0 1 0 0 0 0 1 0 0 0 0.2 0"/><feBlend in2="effect1_innerShadow_16_2" result="effect2_innerShadow_16_2"/></filter><filter id="j" width="5.156" height="5.535" x="9.503" y="-.368" color-interpolation-filters="sRGB" filterUnits="userSpaceOnUse"><feFlood flood-opacity="0" result="BackgroundImageFix"/><feBlend in="SourceGraphic" in2="BackgroundImageFix" result="shape"/><feColorMatrix in="SourceAlpha" result="hardAlpha" values="0 0 0 0 0 0 0 0 0 0 0 0 0 0 0 0 0 0 127 0"/><feOffset dx="-.245" dy="-.491"/><feGaussianBlur stdDeviation=".184"/><feComposite in2="hardAlpha" k2="-1" k3="1" operator="arithmetic"/><feColorMatrix values="0 0 0 0 0.120833 0 0 0 0 0.0176215 0 0 0 0 0.0422691 0 0 0 0.2 0"/><feBlend in2="shape" result="effect1_innerShadow_16_2"/><feColorMatrix in="SourceAlpha" result="hardAlpha" values="0 0 0 0 0 0 0 0 0 0 0 0 0 0 0 0 0 0 127 0"/><feOffset dy=".245"/><feGaussianBlur stdDeviation=".184"/><feComposite in2="hardAlpha" k2="-1" k3="1" operator="arithmetic"/><feColorMatrix values="0 0 0 0 1 0 0 0 0 1 0 0 0 0 1 0 0 0 0.2 0"/><feBlend in2="effect1_innerShadow_16_2" result="effect2_innerShadow_16_2"/></filter><filter id="k" width="13.884" height="9.509" x="5.368" y="3.73" color-interpolation-filters="sRGB" filterUnits="userSpaceOnUse"><feFlood flood-opacity="0" result="BackgroundImageFix"/><feBlend in="SourceGraphic" in2="BackgroundImageFix" result="shape"/><feGaussianBlur result="effect1_foregroundBlur_16_2" stdDeviation=".245"/></filter><filter id="o" width="14.431" height="5.757" x="5.104" y="14.342" color-interpolation-filters="sRGB" filterUnits="userSpaceOnUse"><feFlood flood-opacity="0" result="BackgroundImageFix"/><feBlend in="SourceGraphic" in2="BackgroundImageFix" result="shape"/><feGaussianBlur result="effect1_foregroundBlur_16_2" stdDeviation=".245"/></filter><filter id="s" width="5.062" height="3.671" x="3.471" y="10.639" color-interpolation-filters="sRGB" filterUnits="userSpaceOnUse"><feFlood flood-opacity="0" result="BackgroundImageFix"/><feBlend in="SourceGraphic" in2="BackgroundImageFix" result="shape"/><feColorMatrix in="SourceAlpha" result="hardAlpha" values="0 0 0 0 0 0 0 0 0 0 0 0 0 0 0 0 0 0 127 0"/><feOffset dy="-.123"/><feGaussianBlur stdDeviation=".061"/><feComposite in2="hardAlpha" k2="-1" k3="1" operator="arithmetic"/><feColorMatrix values="0 0 0 0 1 0 0 0 0 1 0 0 0 0 1 0 0 0 0.25 0"/><feBlend in2="shape" result="effect1_innerShadow_16_2"/></filter><filter id="u" width="5.062" height="3.671" x="15.986" y="10.639" color-interpolation-filters="sRGB" filterUnits="userSpaceOnUse"><feFlood flood-opacity="0" result="BackgroundImageFix"/><feBlend in="SourceGraphic" in2="BackgroundImageFix" result="shape"/><feColorMatrix in="SourceAlpha" result="hardAlpha" values="0 0 0 0 0 0 0 0 0 0 0 0 0 0 0 0 0 0 127 0"/><feOffset dy="-.123"/><feGaussianBlur stdDeviation=".061"/><feComposite in2="hardAlpha" k2="-1" k3="1" operator="arithmetic"/><feColorMatrix values="0 0 0 0 1 0 0 0 0 1 0 0 0 0 1 0 0 0 0.25 0"/><feBlend in2="shape" result="effect1_innerShadow_16_2"/></filter><filter id="x" width="3.046" height=".897" x="10.736" y="13.656" color-interpolation-filters="sRGB" filterUnits="userSpaceOnUse"><feFlood flood-opacity="0" result="BackgroundImageFix"/><feBlend in="SourceGraphic" in2="BackgroundImageFix" result="shape"/><feColorMatrix in="SourceAlpha" result="hardAlpha" values="0 0 0 0 0 0 0 0 0 0 0 0 0 0 0 0 0 0 127 0"/><feOffset dy="-.123"/><feGaussianBlur stdDeviation=".061"/><feComposite in2="hardAlpha" k2="-1" k3="1" operator="arithmetic"/><feColorMatrix values="0 0 0 0 1 0 0 0 0 1 0 0 0 0 1 0 0 0 0.25 0"/><feBlend in2="shape" result="effect1_innerShadow_16_2"/></filter></defs></svg>