<svg id="Calque_1" data-name="Calque 1" xmlns="http://www.w3.org/2000/svg" viewBox="0 0 176.99 97.84"><title>logo</title><path d="M40,6.34a5.3,5.3,0,0,1,1.58-3.86A5.21,5.21,0,0,1,45.41.87a5.11,5.11,0,0,1,3.8,1.61,5.36,5.36,0,0,1,1.56,3.86,5.39,5.39,0,0,1-1.56,3.9,5.08,5.08,0,0,1-3.8,1.62,5.18,5.18,0,0,1-3.83-1.62A5.33,5.33,0,0,1,40,6.34Z" transform="translate(-1.72 -0.87)"/><path d="M96.07,33.57q4.43-5,9-5a5.31,5.31,0,0,1,3.88,1.35,4.12,4.12,0,0,1,1.38,3q0,3.44-3.13,3.44c-1.14,0-2.13-.71-3-2.14s-1.57-2-2.4-2c-1.32,0-2.78.91-4.37,2.71A16.7,16.7,0,0,1,100.14,44a15.7,15.7,0,0,1-4.48,11q-4.48,4.84-15.1,5.21-11,.36-11,4.48c0,1.28.83,2.19,2.5,2.71s5.06,1,10.31,1.24a71.57,71.57,0,0,1,13.22,1.59A13.17,13.17,0,0,1,103,75a13.35,13.35,0,0,1,2.76,8.44,13.22,13.22,0,0,1-5.63,11.09q-5.62,4.22-16.19,4.22-9.69,0-15.52-3.75t-5.83-9.48a7.92,7.92,0,0,1,1.67-5.2,5.76,5.76,0,0,1,4.73-2,4.11,4.11,0,0,1,1.52.26A11,11,0,0,0,67.23,86c0,3.06,1.43,5.58,4.29,7.58s7.14,3,12.84,3q7.61,0,11.84-3a9.24,9.24,0,0,0,4.25-7.79c0-3.47-1.27-5.91-3.8-7.34s-7.05-2.22-13.54-2.5q-11.2-.47-14.53-2.76a6.72,6.72,0,0,1-3.33-5.78q0-6.82,9.53-8.59a22.33,22.33,0,0,1-7.45-6.66,14.85,14.85,0,0,1-2.5-8.39A14.26,14.26,0,0,1,70,32.66,17.69,17.69,0,0,1,82.12,28.1Q90.82,28.1,96.07,33.57ZM72.64,44.92q0,6.72,2.76,9.84a9.23,9.23,0,0,0,13.83,0q2.83-3.1,2.83-10.75T89,33.41a9.57,9.57,0,0,0-6.82-2.91A8,8,0,0,0,75,34.09C73.44,36.48,72.64,40.1,72.64,44.92Z" transform="translate(-1.72 -0.87)"/><path d="M40,33.67a3.46,3.46,0,0,1,1.88,2.09c.46,1.11.7,4.16.7,9.16V58.43h7.45c0-.2,0-.39,0-.59V28.1H48.9a63.15,63.15,0,0,1-14.37,2.76v2.4h1.4A14.06,14.06,0,0,1,40,33.67Z" transform="translate(-1.72 -0.87)"/><path d="M13.8,53.67a36.67,36.67,0,0,1,7.82,4.76h7.29a18.44,18.44,0,0,0-1.57-4.19q-2-3.8-10.83-7.81-5.88-2.66-8-4.74a6.42,6.42,0,0,1-2.14-4.84,6.14,6.14,0,0,1,1.93-4.48,6.82,6.82,0,0,1,5.05-1.92,9.09,9.09,0,0,1,7.05,3.41,18,18,0,0,1,4,8.14H26.4V28.83H24.48a13.44,13.44,0,0,1-2,3.8,11.34,11.34,0,0,0-9.22-4.53,10.22,10.22,0,0,0-8.49,3.83,12.81,12.81,0,0,0-3,8,10.5,10.5,0,0,0,2.82,7.45Q7.35,50.5,13.8,53.67Z" transform="translate(-1.72 -0.87)"/><path d="M149.61,58.43a48.7,48.7,0,0,1-.84-9.6q0-1.52.21-4.59h29.73a17.43,17.43,0,0,0-4.84-11q-4.59-5.12-13-5.11a19,19,0,0,0-14.84,6.69q-5.94,6.69-5.93,16.79a26.83,26.83,0,0,0,.84,6.85Zm10.88-28A8.95,8.95,0,0,1,169.75,40a17.39,17.39,0,0,1-.15,2.13H149.19Q151,30.4,160.49,30.39Z" transform="translate(-1.72 -0.87)"/><path d="M119.4,15.66V58.43h7.5V.87h-1.15a27.38,27.38,0,0,1-5.91,1.46,45,45,0,0,1-7.47.73V5.45q4.63,0,5.83,1.75T119.4,15.66Z" transform="translate(-1.72 -0.87)"/></svg>