<svg width="16" height="16" viewBox="0 0 16 16" fill="none" xmlns="http://www.w3.org/2000/svg">
<path d="M11.6981 2.73023C10.9862 1.9104 9.1307 0.659184 7.20431 1.7911L4.01232 3.6622C3.87957 3.73617 3.75226 3.81968 3.62991 3.91321C2.98498 4.40807 2.5783 5.1148 2.48518 5.90409C2.39205 6.69338 2.62338 7.47026 3.13606 8.09062L3.94446 9.07651C3.98161 9.12185 3.96922 9.18866 3.9182 9.21872L2.38264 10.124C2.28159 10.1836 2.21175 10.2824 2.19094 10.3945C2.17014 10.5072 2.20085 10.6226 2.27466 10.7119L4.52153 13.4319L4.61466 13.5407C5.22343 14.2775 6.12396 14.6617 7.03292 14.6617C7.663 14.6617 8.29604 14.4746 8.83894 14.0952C8.84835 14.0905 8.85826 14.0866 8.86717 14.0809L12.0146 12.237C12.0715 12.205 13.4139 11.4425 13.669 10.1411C13.8152 9.39719 13.5814 8.64751 12.9751 7.91358L12.0651 6.8122C12.0275 6.76687 12.0398 6.69958 12.0914 6.66952L13.617 5.77334C13.7186 5.71369 13.7884 5.61538 13.8092 5.50229C13.83 5.38967 13.7993 5.27371 13.7255 5.18447L11.6981 2.73023ZM3.78496 7.59528C3.40899 7.14051 3.23958 6.57169 3.30794 5.99428C3.3763 5.41687 3.6735 4.89911 4.14606 4.53739C4.20748 4.49014 4.27089 4.44624 4.33627 4.40616C4.33627 4.40616 4.33627 4.40616 4.33677 4.40568L4.4289 4.35176C5.03966 4.01247 5.7901 3.96332 6.4925 4.25441C6.83974 4.39805 7.12654 4.65096 7.36183 4.93585L7.76454 5.42355C7.80219 5.46888 7.7898 5.53617 7.73829 5.56623L5.63902 6.7955C5.63506 6.79788 5.63209 6.80075 5.62862 6.80313C5.59395 6.82461 5.56026 6.84704 5.52807 6.87233C5.28436 7.05939 5.1308 7.32614 5.09563 7.62439C5.06046 7.92264 5.14764 8.21612 5.34182 8.45043L6.68271 10.0758C6.73918 10.144 6.76444 10.229 6.75404 10.3153C6.74364 10.4017 6.69906 10.4795 6.62872 10.5334C6.48259 10.6451 6.2696 10.6222 6.15121 10.479L3.78496 7.59528ZM6.51776 7.54709L8.20639 9.61193L7.54609 9.99894C7.50597 9.84815 7.43365 9.70498 7.33012 9.57948L5.98923 7.95414C5.93276 7.8859 5.9075 7.80096 5.9179 7.71458C5.9283 7.62821 5.97289 7.55043 6.04372 7.4965C6.11455 7.4421 6.20272 7.41777 6.29238 7.42779C6.38204 7.43733 6.46278 7.48028 6.51776 7.54709ZM9.2902 11.6878C9.28772 12.3639 8.97615 12.9795 8.43722 13.3928C7.46288 14.1401 6.03877 13.984 5.2591 13.0401L3.28565 10.6546C3.248 10.6093 3.26039 10.542 3.3119 10.5119L4.45664 9.83717C4.50023 9.8114 4.5562 9.82142 4.58791 9.8596L5.376 10.8226L5.50627 10.9782C5.86738 11.4153 6.50043 11.5222 6.99032 11.2564C6.99874 11.2521 7.00766 11.2487 7.01558 11.2435L8.72352 10.2423L8.73095 10.2514C9.0663 10.6627 9.29218 11.1643 9.2902 11.6878ZM12.3281 8.4113C12.7769 8.95435 12.9547 9.48595 12.8572 9.99035C12.6754 10.9309 11.6104 11.5427 11.593 11.5522L10.006 12.4818C10.0481 12.3334 10.0793 12.1812 10.0976 12.0256C10.1907 11.2363 9.9594 10.4594 9.44722 9.83955L7.16716 7.05128C7.12555 7.00117 7.07948 6.95584 7.03094 6.91384L8.28019 6.18182C8.32329 6.15653 8.37926 6.16607 8.41096 6.20425L9.59037 7.63155C9.75186 7.8272 10.0392 7.87588 10.2606 7.74608L11.2077 7.18966C11.2508 7.16437 11.3067 7.17392 11.3384 7.21209L12.3281 8.4113ZM10.1412 6.88235C10.0981 6.90764 10.0421 6.8981 10.0104 6.85992L7.96813 4.38802C7.56294 3.89794 7.02103 3.55054 6.4078 3.38161C6.3221 3.35823 6.30328 3.25229 6.37907 3.20791L7.63476 2.47159C9.41057 1.42843 10.9605 3.12583 11.0606 3.23893L12.7155 5.24221C12.7531 5.28755 12.7408 5.35483 12.6892 5.38489L10.1412 6.88235Z" fill="#C7C7C7" stroke="#C7C7C7" stroke-width="0.2"/>
</svg>
