<?xml version="1.0" standalone="no"?>
<!DOCTYPE svg PUBLIC "-//W3C//DTD SVG 20010904//EN"
 "http://www.w3.org/TR/2001/REC-SVG-20010904/DTD/svg10.dtd">
<svg version="1.0" xmlns="http://www.w3.org/2000/svg"
 width="555.000000pt" height="555.000000pt" viewBox="0 0 555.000000 555.000000"
 preserveAspectRatio="xMidYMid meet">
<metadata>
Created by potrace 1.11, written by Peter Selinger 2001-2013
</metadata>
<g transform="translate(0.000000,555.000000) scale(0.100000,-0.100000)"
fill="#000000" stroke="none">
<path d="M3098 5545 c-1 -1 -39 -5 -83 -8 -92 -6 -115 -10 -206 -31 -146 -33
-250 -83 -524 -248 -105 -64 -372 -225 -595 -360 -223 -134 -452 -273 -510
-308 -171 -103 -286 -201 -386 -330 -169 -218 -258 -475 -258 -750 0 -179 33
-338 100 -491 59 -133 104 -201 310 -458 107 -134 194 -249 194 -255 -1 -25
-2 -27 -472 -310 -161 -98 -236 -157 -239 -189 -1 -7 -2 -25 -4 -42 -2 -16 1
-46 7 -65 9 -27 140 -200 281 -370 7 -8 167 -208 356 -445 356 -444 475 -576
597 -657 148 -99 329 -172 499 -202 81 -15 353 -15 425 -1 141 27 318 93 423
158 85 53 512 312 1041 631 429 259 522 324 648 452 253 260 365 505 366 799
1 264 -102 512 -324 785 -38 47 -82 102 -99 123 -63 81 -93 117 -167 210 -43
53 -78 103 -78 111 0 22 9 28 378 250 134 81 257 156 272 168 43 32 63 81 58
144 -4 52 -20 78 -107 184 -11 14 -82 102 -157 195 -187 234 -195 243 -232
289 -18 23 -39 48 -45 56 -374 467 -400 495 -552 615 -250 196 -551 323 -814
341 -42 3 -81 7 -88 9 -6 2 -13 2 -15 0z m197 -358 c255 -56 570 -261 741
-482 22 -27 47 -59 56 -70 9 -11 45 -56 80 -100 34 -44 65 -82 68 -85 3 -3 23
-27 45 -55 22 -27 45 -57 52 -65 98 -119 327 -409 334 -423 8 -13 5 -22 -13
-38 -18 -16 -576 -357 -886 -542 -30 -18 -68 -41 -85 -51 -62 -37 -81 -45 -93
-38 -6 4 -134 160 -284 347 -149 187 -288 360 -308 384 -20 24 -43 54 -51 65
-8 12 -18 23 -21 26 -3 3 -49 59 -102 125 -165 206 -258 293 -413 385 -47 27
-88 50 -90 50 -3 0 -24 9 -48 19 -23 11 -66 28 -96 37 -30 10 -63 26 -74 37
-18 18 -18 19 0 39 10 11 34 29 53 39 19 11 49 28 65 39 17 11 44 27 62 37 18
10 119 70 225 134 212 127 291 163 418 189 102 21 261 20 365 -3z m-1360 -792
c88 -18 124 -28 194 -55 101 -39 199 -105 287 -194 100 -100 266 -311 262
-333 -2 -11 -174 -120 -452 -288 -484 -292 -528 -325 -581 -432 -69 -140 -69
-306 1 -432 13 -24 154 -205 312 -402 158 -197 292 -374 299 -393 32 -92 -65
-190 -163 -164 -17 4 -45 22 -62 40 -49 52 -960 1197 -1009 1268 -104 154
-155 330 -148 520 4 113 7 135 31 220 92 328 378 585 717 644 71 13 253 13
312 1z m1070 -967 c39 -50 75 -95 80 -102 6 -6 75 -92 154 -191 79 -99 158
-195 175 -214 41 -44 100 -71 158 -71 54 0 95 20 328 162 85 52 163 97 172
100 21 8 40 -9 111 -100 31 -41 73 -93 92 -115 275 -329 379 -483 424 -631 29
-93 33 -119 33 -206 0 -191 -94 -384 -275 -563 -105 -105 -192 -166 -462 -327
-189 -112 -264 -158 -360 -218 -27 -17 -51 -30 -52 -28 -1 1 1 17 7 34 5 18
12 56 15 85 3 28 9 66 11 82 7 41 7 156 0 235 -9 100 -20 151 -52 253 -58 185
-119 287 -321 537 -7 8 -130 164 -274 345 -144 182 -282 355 -306 385 -61 76
-61 76 -122 155 -30 39 -78 97 -107 131 l-53 61 221 134 c282 170 298 179 318
167 8 -6 47 -51 85 -100z m-873 -436 c23 -15 74 -75 193 -227 17 -21 50 -63
75 -95 25 -31 59 -73 75 -94 17 -21 105 -133 198 -249 92 -116 166 -214 165
-219 -2 -4 -59 -42 -127 -83 l-124 -75 -23 56 c-22 54 -57 111 -92 150 -9 10
-125 154 -257 319 -131 165 -242 302 -246 305 -16 12 -39 72 -39 100 0 98 121
166 202 112z m-756 -980 c6 -4 101 -120 211 -257 110 -138 217 -265 239 -283
85 -71 208 -113 319 -108 119 5 165 27 547 257 285 172 365 216 376 207 21
-18 95 -136 129 -208 137 -287 111 -617 -69 -883 -134 -197 -380 -352 -612
-384 -66 -10 -216 -9 -285 1 -207 30 -438 166 -576 340 -40 51 -406 507 -622
776 -95 118 -173 222 -173 232 0 17 54 52 360 237 143 86 139 85 156 73z"/>
</g>
</svg>
