<svg xmlns="http://www.w3.org/2000/svg" width="145" height="53" fill="none" viewBox="0 0 145 53"><g clip-path="url(#clip0)"><path fill="#c7c7c7" d="M36.3999 5.5C33.6999 2.2 26.5999 -2.7 19.1999 1.8L6.9999 9.2C6.4999 9.5 5.9999 9.8 5.4999 10.2C2.9999 12.2 1.4999 15 1.0999 18.1C0.699902 21.2 1.5999 24.3 3.5999 26.8L6.6999 30.7C6.7999 30.9 6.7999 31.1 6.5999 31.3L0.699902 34.9C0.399902 35.1 0.0999023 35.5 -9.76548e-05 36C-0.100098 36.4 -9.76622e-05 36.9 0.299902 37.3L8.8999 48L9.2999 48.4C11.5999 51.3 15.0999 52.8 18.5999 52.8C20.9999 52.8 23.3999 52.1 25.4999 50.6C25.4999 50.6 25.5999 50.6 25.5999 50.5L37.5999 43.2C37.7999 43.1 42.9999 40 43.8999 34.9C44.4999 31.9 43.5999 29 41.1999 26.1L37.6999 21.7C37.5999 21.5 37.5999 21.3 37.7999 21.1L43.5999 17.5C43.9999 17.3 44.2999 16.9 44.2999 16.4C44.3999 16 44.2999 15.5 43.9999 15.1L36.3999 5.5ZM6.0999 24.8C4.6999 23 3.9999 20.8 4.2999 18.5C4.5999 16.2 5.6999 14.2 7.4999 12.7C7.6999 12.5 7.9999 12.3 8.1999 12.2L8.5999 12C10.8999 10.7 13.7999 10.5 16.4999 11.6C17.7999 12.2 18.8999 13.2 19.7999 14.3L21.2999 16.2C21.3999 16.4 21.3999 16.6 21.1999 16.8L13.1999 21.7C13.0999 21.8 12.8999 21.9 12.7999 22C11.8999 22.7 11.2999 23.8 11.0999 25C10.9999 26.2 11.2999 27.3 11.9999 28.3L17.0999 34.8C17.2999 35.1 17.3999 35.4 17.3999 35.8C17.3999 36.1 17.1999 36.5 16.8999 36.7C16.2999 37.1 15.4999 37.1 15.0999 36.5L6.0999 24.8ZM16.5999 24.6L23.0999 32.8L20.5999 34.3C20.3999 33.7 20.1999 33.1 19.7999 32.6L14.6999 26.1C14.4999 25.8 14.3999 25.5 14.3999 25.1C14.3999 24.8 14.5999 24.4 14.8999 24.2C15.1999 24 15.4999 23.9 15.8999 23.9C16.0999 24.2 16.3999 24.4 16.5999 24.6ZM27.1999 41.1C27.1999 43.8 25.9999 46.2 23.8999 47.9C20.1999 50.9 14.6999 50.2 11.6999 46.5L4.1999 37C4.0999 36.8 4.0999 36.6 4.2999 36.4L8.6999 33.7C8.8999 33.6 9.0999 33.6 9.1999 33.8L12.1999 37.6L12.6999 38.2C14.0999 39.9 16.4999 40.4 18.3999 39.3C18.3999 39.3 18.4999 39.3 18.4999 39.2L24.9999 35.2C26.2999 37 27.1999 39 27.1999 41.1ZM38.7999 28.1C40.4999 30.3 41.1999 32.4 40.7999 34.4C40.0999 38.1 35.9999 40.6 35.9999 40.6L29.8999 44.3C30.0999 43.7 30.1999 43.1 30.2999 42.5C30.6999 39.4 29.7999 36.3 27.7999 33.8L19.0999 22.7C18.8999 22.5 18.7999 22.3 18.5999 22.2L23.3999 19.3C23.5999 19.2 23.7999 19.2 23.8999 19.4L28.3999 25.1C28.9999 25.9 30.0999 26.1 30.9999 25.6L34.5999 23.4C34.7999 23.3 34.9999 23.3 35.0999 23.5L38.7999 28.1ZM34.0999 19.8L30.3999 22C30.1999 22.1 29.9999 22.1 29.8999 21.9L22.0999 12.1C20.5999 10.2 18.4999 8.8 16.0999 8.1C15.7999 8 15.7999 7.6 15.9999 7.4L20.7999 4.5C27.5999 0.4 33.4999 7.1 33.8999 7.5L40.1999 15.5C40.2999 15.7 40.2999 15.9 40.0999 16.1L34.4999 19.5L34.0999 19.8Z"/><path fill="#c7c7c7" d="M70 20.9C69.8 21.2 69.7 21.4 69.5 21.5C69.3 21.6 69.1 21.7 68.8 21.7C68.5 21.7 68.2 21.6 67.8 21.5C67.5 21.3 67.1 21.2 66.7 21C66.3 20.8 65.8 20.7 65.3 20.5C64.8 20.3 64.2 20.3 63.5 20.3C62.5 20.3 61.7 20.5 61.1 20.9C60.5 21.3 60.2 21.9 60.2 22.6C60.2 23.1 60.4 23.5 60.7 23.8C61 24.1 61.5 24.4 62 24.6C62.5 24.8 63.1 25.1 63.8 25.3C64.5 25.5 65.2 25.7 65.9 26C66.6 26.2 67.3 26.5 68 26.9C68.7 27.2 69.3 27.6 69.8 28.1C70.3 28.6 70.8 29.2 71.1 29.9C71.4 30.6 71.6 31.4 71.6 32.4C71.6 33.6 71.4 34.6 71 35.6C70.6 36.6 70 37.4 69.1 38.1C68.3 38.8 67.3 39.4 66 39.8C64.8 40.2 63.4 40.4 61.8 40.4C61 40.4 60.2 40.3 59.4 40.2C58.6 40.1 57.8 39.8 57.1 39.6C56.4 39.3 55.7 39 55.1 38.7C54.5 38.3 53.9 38 53.5 37.5L55 35.1C55.2 34.8 55.4 34.6 55.6 34.5C55.9 34.3 56.2 34.3 56.6 34.3C57 34.3 57.3 34.4 57.7 34.6C58 34.8 58.4 35 58.8 35.2C59.2 35.4 59.7 35.6 60.2 35.8C60.7 36 61.4 36.1 62.3 36.1C62.9 36.1 63.5 36 63.9 35.9C64.3 35.8 64.7 35.6 65 35.3C65.3 35.1 65.5 34.8 65.6 34.5C65.7 34.2 65.8 33.9 65.8 33.6C65.8 33.1 65.6 32.6 65.3 32.3C65 32 64.5 31.7 64 31.4C63.5 31.2 62.9 30.9 62.2 30.7C61.5 30.5 60.8 30.3 60.1 30C59.4 29.8 58.7 29.5 58 29.1C57.3 28.8 56.7 28.3 56.2 27.8C55.7 27.3 55.2 26.6 54.9 25.9C54.6 25.1 54.4 24.2 54.4 23.1C54.4 22.1 54.6 21.2 55 20.3C55.4 19.4 56 18.6 56.7 17.9C57.5 17.2 58.4 16.7 59.6 16.3C60.8 15.9 62.1 15.7 63.6 15.7C65.3 15.7 66.8 16 68.2 16.5C69.6 17.1 70.7 17.8 71.6 18.7L70 20.9Z"/><path fill="#c7c7c7" d="M83.0001 9.2C83.0001 9.7 82.9001 10.2 82.7001 10.7C82.5001 11.2 82.2001 11.6 81.8001 11.9C81.4001 12.3 81.0001 12.5 80.5001 12.7C80.0001 12.9 79.5001 13 78.9001 13C78.4001 13 77.9001 12.9 77.4001 12.7C76.9001 12.5 76.5001 12.2 76.2001 11.9C75.8001 11.5 75.6001 11.1 75.4001 10.7C75.2001 10.2 75.1001 9.7 75.1001 9.2C75.1001 8.7 75.2001 8.2 75.4001 7.7C75.6001 7.2 75.9001 6.8 76.2001 6.5C76.6001 6.1 77.0001 5.9 77.4001 5.7C77.9001 5.5 78.4001 5.4 78.9001 5.4C79.5001 5.4 80.0001 5.5 80.5001 5.7C81.0001 5.9 81.4001 6.2 81.8001 6.5C82.2001 6.9 82.5001 7.3 82.7001 7.7C82.9001 8.1 83.0001 8.6 83.0001 9.2ZM82.2001 16V39.9H75.8001V16H82.2001Z"/><path fill="#c7c7c7" d="M109 16.7V19C109 19.4 108.9 19.7 108.7 19.9C108.5 20.1 108.1 20.3 107.7 20.4L105.8 20.8C106.1 21.6 106.2 22.4 106.2 23.2C106.2 24.4 106 25.5 105.5 26.4C105 27.4 104.3 28.2 103.5 28.8C102.6 29.5 101.6 30 100.5 30.4C99.2 30.8 98 31 96.6 31C95.7 31 95 30.9 94.2 30.8C93.6 31.2 93.2 31.6 93.2 32.1C93.2 32.5 93.4 32.9 93.9 33.1C94.3 33.3 94.9 33.4 95.6 33.5C96.3 33.6 97.1 33.6 98.1 33.7C99 33.7 100 33.8 100.9 33.9C101.9 34 102.8 34.1 103.7 34.3C104.6 34.5 105.4 34.8 106.2 35.2C106.9 35.6 107.5 36.2 107.9 37C108.3 37.7 108.6 38.7 108.6 39.8C108.6 40.9 108.3 41.9 107.8 42.9C107.3 43.9 106.5 44.8 105.5 45.6C104.5 46.4 103.3 47 101.8 47.5C100.3 48 98.7 48.2 96.8 48.2C95 48.2 93.4 48 92 47.7C90.6 47.4 89.5 46.9 88.6 46.3C87.7 45.7 87 45.1 86.6 44.3C86.2 43.5 86 42.8 86 41.9C86 40.8 86.3 39.9 87 39.2C87.6 38.5 88.5 37.9 89.7 37.4C89.1 37.1 88.6 36.6 88.3 36.1C87.9 35.6 87.8 34.8 87.8 34C87.8 33.3 88.1 32.5 88.6 31.8C89.1 31 89.9 30.4 91 29.8C89.8 29.2 88.8 28.3 88.1 27.2C87.3 26 87 24.7 87 23.3C87 22.1 87.2 21 87.7 20.1C88.2 19.1 88.9 18.3 89.7 17.7C90.6 17 91.6 16.5 92.8 16.2C94 15.8 95.2 15.7 96.6 15.7C98.6 15.7 100.4 16.1 102 16.9H109V16.7ZM102.7 40.8C102.7 40.4 102.6 40 102.3 39.8C102 39.6 101.7 39.3 101.2 39.2C100.8 39 100.2 38.9 99.6 38.9C99 38.9 98.4 38.8 97.7 38.7C97 38.7 96.3 38.6 95.6 38.6C94.9 38.6 94.2 38.5 93.5 38.4C93 38.7 92.5 39.1 92.2 39.5C91.9 39.9 91.7 40.4 91.7 41C91.7 41.4 91.8 41.7 92 42.1C92.2 42.4 92.5 42.7 92.9 42.9C93.3 43.1 93.9 43.3 94.5 43.4C95.2 43.5 96 43.6 97 43.6C98.1 43.6 98.9 43.5 99.7 43.4C100.4 43.3 101 43.1 101.5 42.8C101.9 42.5 102.3 42.2 102.5 41.9C102.6 41.6 102.7 41.2 102.7 40.8ZM96.6 27C97.9 27 98.9 26.7 99.5 26C100.1 25.3 100.4 24.5 100.4 23.4C100.4 22.3 100.1 21.4 99.5 20.8C98.9 20.2 97.9 19.9 96.6 19.9C95.3 19.9 94.3 20.2 93.7 20.8C93.1 21.4 92.8 22.3 92.8 23.4C92.8 24.4 93.1 25.3 93.7 26C94.4 26.7 95.3 27 96.6 27Z"/><path fill="#c7c7c7" d="M118.8 5.3V39.9H112.4V5.3H118.8Z"/><path fill="#c7c7c7" d="M129.2 28.9C129.4 31.1 130 32.8 131.1 33.8C132.2 34.8 133.6 35.4 135.3 35.4C136.2 35.4 136.9 35.3 137.6 35.1C138.2 34.9 138.8 34.7 139.3 34.4C139.8 34.1 140.2 33.9 140.6 33.7C141 33.5 141.4 33.4 141.8 33.4C142.3 33.4 142.7 33.6 143 34L144.9 36.3C144.2 37.1 143.5 37.7 142.7 38.3C141.9 38.8 141 39.2 140.1 39.5C139.2 39.8 138.3 40 137.4 40.1C136.5 40.2 135.6 40.3 134.8 40.3C133.1 40.3 131.6 40 130.1 39.5C128.7 39 127.4 38.1 126.3 37.1C125.2 36 124.4 34.7 123.8 33.1C123.2 31.5 122.9 29.7 122.9 27.6C122.9 26 123.2 24.4 123.7 23C124.2 21.6 125 20.3 126 19.2C127 18.1 128.2 17.3 129.7 16.7C131.1 16.1 132.8 15.8 134.6 15.8C136.1 15.8 137.5 16 138.8 16.5C140.1 17 141.2 17.7 142.1 18.6C143 19.5 143.8 20.7 144.3 22C144.8 23.4 145.1 24.9 145.1 26.6C145.1 27.1 145.1 27.5 145 27.8C145 28.1 144.9 28.4 144.8 28.5C144.7 28.7 144.5 28.8 144.4 28.9C144.2 29 144 29 143.7 29H129.2V28.9ZM139.3 25.1C139.3 24.4 139.2 23.8 139 23.2C138.8 22.6 138.5 22.1 138.2 21.6C137.8 21.1 137.3 20.8 136.7 20.5C136.1 20.2 135.4 20.1 134.6 20.1C133.1 20.1 131.9 20.5 131 21.4C130.1 22.3 129.6 23.5 129.3 25.1H139.3Z"/></g><defs><clipPath id="clip0"><rect width="145" height="52.9" fill="#fff"/></clipPath></defs></svg>